<?xml version="1.0" encoding="utf-8"?>
<!-- Generator: Adobe Illustrator 25.3.1, SVG Export Plug-In . SVG Version: 6.00 Build 0)  -->
<svg version="1.1" id="Layer_1" xmlns="http://www.w3.org/2000/svg" xmlns:xlink="http://www.w3.org/1999/xlink" x="0px" y="0px"
	 viewBox="0 0 1080 1080" style="enable-background:new 0 0 1080 1080;" xml:space="preserve">
<style type="text/css">
	.st0{fill:#777777;}
	.st1{fill:url(#SVGID_1_);}
	.st2{fill:url(#SVGID_2_);}
</style>
<g>
	<g>
		<path class="st0" d="M396.89,412.22c35.48,0,65.92,12.7,91.29,38.07c25.38,25.38,38.07,55.81,38.07,91.3
			c0,35.65-12.69,66.16-38.07,91.54c-25.38,25.38-55.81,38.07-91.29,38.07c-35.65,0-66.17-12.7-91.54-38.07
			c-25.38-25.38-38.07-55.89-38.07-91.54c0-35.49,12.69-65.92,38.07-91.3C330.73,424.92,361.24,412.22,396.89,412.22z
			 M338.61,483.31c-16.18,16.18-24.27,35.61-24.27,58.28c0,22.67,8.08,42.1,24.27,58.27c16.18,16.18,35.61,24.27,58.28,24.27
			c22.67,0,42.05-8.09,58.15-24.27c16.1-16.17,24.15-35.6,24.15-58.27c0-22.67-8.05-42.1-24.15-58.28
			c-16.1-16.18-35.48-24.27-58.15-24.27C374.22,459.04,354.79,467.13,338.61,483.31z"/>
		<g>
			<linearGradient id="SVGID_1_" gradientUnits="userSpaceOnUse" x1="526.2568" y1="610.7047" x2="664.0898" y2="610.7047">
				<stop  offset="0" style="stop-color:#292929"/>
				<stop  offset="1" style="stop-color:#000000"/>
			</linearGradient>
			<path class="st1" d="M619.04,545.1l-82.03,73.58c-12,10.76-14.3,30.92-5.13,45.01c5.39,8.28,13.53,12.62,21.76,12.62
				c5.79,0,11.62-2.15,16.58-6.6l93.88-84.2L619.04,545.1z"/>
			<linearGradient id="SVGID_2_" gradientUnits="userSpaceOnUse" x1="526.2568" y1="472.9795" x2="664.0898" y2="472.9795">
				<stop  offset="0" style="stop-color:#292929"/>
				<stop  offset="1" style="stop-color:#000000"/>
			</linearGradient>
			<path class="st2" d="M619.04,538.59l45.05-40.41l-93.88-84.2c-12.01-10.79-29.17-8.09-38.34,6.02
				c-9.17,14.09-6.87,34.25,5.13,45.01L619.04,538.59z"/>
		</g>
		<g>
			<g>
				<path class="st0" d="M781.8,676.06c-5.79,0-11.62-2.15-16.58-6.6L622.66,541.59l142.55-127.87
					c11.99-10.79,29.16-8.09,38.34,6.02c9.17,14.09,6.87,34.25-5.13,45.01l-85.65,76.84l85.65,76.84c12,10.76,14.3,30.92,5.13,45.01
					C798.17,671.72,790.03,676.06,781.8,676.06z"/>
			</g>
		</g>
	</g>
</g>
</svg>
