<?xml version="1.0" encoding="utf-8"?>
<!-- Generator: Adobe Illustrator 25.3.1, SVG Export Plug-In . SVG Version: 6.00 Build 0)  -->
<svg version="1.1" id="Layer_1" xmlns="http://www.w3.org/2000/svg" xmlns:xlink="http://www.w3.org/1999/xlink" x="0px" y="0px"
	 viewBox="0 0 1080 1080" style="enable-background:new 0 0 1080 1080;" xml:space="preserve">
<style type="text/css">
	.st0{fill:url(#SVGID_1_);}
	.st1{fill:#FFFFFF;}
</style>
<g>
	<linearGradient id="SVGID_1_" gradientUnits="userSpaceOnUse" x1="224.6715" y1="539.625" x2="855.3285" y2="539.625">
		<stop  offset="0" style="stop-color:#292929"/>
		<stop  offset="1" style="stop-color:#000000"/>
	</linearGradient>
	<path class="st0" d="M540,854.95L540,854.95c-174.15,0-315.33-141.18-315.33-315.33v0c0-174.15,141.18-315.33,315.33-315.33h0
		c174.15,0,315.33,141.18,315.33,315.33v0C855.33,713.78,714.15,854.95,540,854.95z"/>
	<g>
		<g>
			<path class="st1" d="M414.18,424.35c31.59,0,58.68,11.3,81.27,33.89c22.6,22.59,33.89,49.68,33.89,81.28
				c0,31.74-11.3,58.9-33.89,81.49c-22.59,22.59-49.68,33.89-81.27,33.89c-31.74,0-58.9-11.3-81.49-33.89
				c-22.6-22.59-33.89-49.75-33.89-81.49c0-31.59,11.3-58.68,33.89-81.28C355.28,435.65,382.45,424.35,414.18,424.35z M362.3,487.64
				c-14.41,14.41-21.6,31.7-21.6,51.88c0,20.18,7.2,37.48,21.6,51.87C376.71,605.8,394,613,414.18,613
				c20.18,0,37.43-7.2,51.77-21.61c14.33-14.39,21.5-31.69,21.5-51.87c0-20.18-7.16-37.48-21.5-51.88
				c-14.33-14.41-31.59-21.61-51.77-21.61C394,466.03,376.71,473.23,362.3,487.64z"/>
			<g>
				<path class="st1" d="M611.94,542.64l-73.02,65.5c-10.69,9.58-12.73,27.53-4.57,40.07c4.79,7.37,12.04,11.23,19.37,11.23
					c5.16,0,10.35-1.91,14.76-5.87l83.57-74.96L611.94,542.64z"/>
				<path class="st1" d="M611.94,536.85l40.11-35.98l-83.57-74.96c-10.69-9.6-25.97-7.2-34.13,5.36
					c-8.16,12.54-6.12,30.49,4.57,40.07L611.94,536.85z"/>
			</g>
			<g>
				<g>
					<path class="st1" d="M756.83,659.22c-5.16,0-10.35-1.91-14.76-5.87l-126.9-113.83l126.9-113.83c10.68-9.6,25.96-7.2,34.13,5.36
						c8.16,12.54,6.12,30.49-4.57,40.07l-76.25,68.4l76.25,68.4c10.69,9.58,12.73,27.53,4.57,40.07
						C771.41,655.36,764.16,659.22,756.83,659.22z"/>
				</g>
			</g>
		</g>
	</g>
</g>
</svg>
