<?xml version="1.0" encoding="utf-8"?>
<!-- Generator: Adobe Illustrator 25.3.1, SVG Export Plug-In . SVG Version: 6.00 Build 0)  -->
<svg version="1.1" id="Layer_1" xmlns="http://www.w3.org/2000/svg" xmlns:xlink="http://www.w3.org/1999/xlink" x="0px" y="0px"
	 viewBox="0 0 1080 1080" style="enable-background:new 0 0 1080 1080;" xml:space="preserve">
<style type="text/css">
	.st0{fill:url(#SVGID_1_);}
	.st1{fill:#FFFFFF;}
</style>
<g>
	<linearGradient id="SVGID_1_" gradientUnits="userSpaceOnUse" x1="224.6715" y1="539.625" x2="855.3285" y2="539.625">
		<stop  offset="7.458905e-08" style="stop-color:#C6C6C6"/>
		<stop  offset="1" style="stop-color:#B2B2B2"/>
	</linearGradient>
	<path class="st0" d="M765.99,854.95H314.01c-49.34,0-89.34-40-89.34-89.34V313.64c0-49.34,40-89.34,89.34-89.34h451.97
		c49.34,0,89.34,40,89.34,89.34v451.97C855.33,814.95,815.33,854.95,765.99,854.95z"/>
	<g>
		<g>
			<path class="st1" d="M398.67,410.13c35.48,0,65.92,12.7,91.29,38.07c25.38,25.38,38.07,55.81,38.07,91.3
				c0,35.65-12.69,66.16-38.07,91.54c-25.38,25.38-55.81,38.07-91.29,38.07c-35.65,0-66.17-12.7-91.54-38.07
				c-25.38-25.38-38.07-55.89-38.07-91.54c0-35.49,12.69-65.92,38.07-91.3C332.5,422.83,363.02,410.13,398.67,410.13z
				 M340.39,481.22c-16.18,16.18-24.27,35.61-24.27,58.28c0,22.67,8.08,42.1,24.27,58.27c16.18,16.18,35.61,24.27,58.28,24.27
				c22.67,0,42.05-8.09,58.15-24.27c16.1-16.17,24.15-35.6,24.15-58.27c0-22.67-8.05-42.1-24.15-58.28
				c-16.1-16.18-35.48-24.27-58.15-24.27C375.99,456.95,356.57,465.04,340.39,481.22z"/>
			<g>
				<path class="st1" d="M620.81,543.01l-82.03,73.58c-12,10.76-14.3,30.92-5.13,45.01c5.39,8.28,13.53,12.62,21.76,12.62
					c5.79,0,11.62-2.15,16.58-6.6l93.88-84.2L620.81,543.01z"/>
				<path class="st1" d="M620.81,536.5l45.05-40.41l-93.88-84.2c-12.01-10.79-29.17-8.09-38.34,6.02
					c-9.17,14.09-6.87,34.25,5.13,45.01L620.81,536.5z"/>
			</g>
			<g>
				<g>
					<path class="st1" d="M783.57,673.97c-5.79,0-11.62-2.15-16.58-6.6L624.44,539.51l142.55-127.87
						c11.99-10.79,29.16-8.09,38.34,6.02c9.17,14.09,6.87,34.25-5.13,45.01l-85.65,76.84l85.65,76.84
						c12,10.76,14.3,30.92,5.13,45.01C799.95,669.63,791.81,673.97,783.57,673.97z"/>
				</g>
			</g>
		</g>
	</g>
</g>
</svg>
