<?xml version="1.0" encoding="utf-8"?>
<!-- Generator: Adobe Illustrator 25.3.1, SVG Export Plug-In . SVG Version: 6.00 Build 0)  -->
<svg version="1.1" id="Layer_1" xmlns="http://www.w3.org/2000/svg" xmlns:xlink="http://www.w3.org/1999/xlink" x="0px" y="0px"
	 viewBox="0 0 1080 1080" style="enable-background:new 0 0 1080 1080;" xml:space="preserve">
<style type="text/css">
	.st0{fill:url(#SVGID_1_);}
	.st1{fill:url(#SVGID_2_);}
</style>
<g>
	<linearGradient id="SVGID_1_" gradientUnits="userSpaceOnUse" x1="239.8811" y1="557.1422" x2="505.7439" y2="557.1422">
		<stop  offset="0" style="stop-color:#292929"/>
		<stop  offset="1" style="stop-color:#000000"/>
	</linearGradient>
	<path class="st0" d="M466.8,651.13c25.97-26.08,38.95-57.42,38.95-93.98s-12.98-67.9-38.95-94c-25.97-26.1-57.23-39.15-93.78-39.15
		c-36.57,0-67.9,13.05-94,39.15c-26.1,26.1-39.14,57.44-39.14,94s13.04,67.9,39.14,93.98c26.1,26.1,57.43,39.15,94,39.15
		C409.57,690.28,440.83,677.23,466.8,651.13z"/>
	<linearGradient id="SVGID_2_" gradientUnits="userSpaceOnUse" x1="261.4937" y1="539.625" x2="840.1189" y2="539.625">
		<stop  offset="0" style="stop-color:#292929"/>
		<stop  offset="1" style="stop-color:#000000"/>
	</linearGradient>
	<path class="st1" d="M737.13,557.15l102.99-92.37C806.52,326.76,682.11,224.3,533.75,224.3h0c-116.1,0-217.53,62.76-272.26,156.18
		c32.86-21.31,70.03-31.98,111.52-31.98c57.22,0,106.31,20.47,147.24,61.4c40.94,40.93,61.4,90.01,61.4,147.25
		c0,57.5-20.46,106.7-61.4,147.63c-40.93,40.93-90.01,61.4-147.24,61.4c-24.81,0-48.07-3.82-69.79-11.44
		c57.56,61.65,139.53,100.21,230.53,100.21h0c138.22,0,255.66-88.94,298.24-212.72L737.13,557.15z M590.71,361.05
		c14.79-22.76,42.47-27.11,61.84-9.71l151.4,135.8l-72.66,65.18l-132.3-118.67C579.63,416.28,575.92,383.77,590.71,361.05z
		 M652.54,763.78c-8,7.18-17.4,10.64-26.74,10.64c-13.28,0-26.41-7-35.09-20.35c-14.78-22.72-11.08-55.23,8.28-72.59l132.3-118.67
		l72.66,65.18L652.54,763.78z"/>
</g>
</svg>
